<svg xmlns="http://www.w3.org/2000/svg" width="420" height="560"><path d="M350.8 348.4c.2 1.2-.6 2.3-2.1 2.9-3.2 1.1-6.4 2.5-9.6 2.5-24.7-.2-121.6-1.3-131.5-1.6-51-1.2-38-23.1-34.5-43.5 5-28.7 22.6-35.6 53.4-35.6 29.6 0 37.4-4.3 38-24.3.4-14.8-1.4-8.5-15.1-9.4-10.6-.8-15 2.4-22.9-7.4-6.6-8.2 10.2-8.4 19-7.8 24.4 1.6 45.2-2.1 48.6 9.4 6 20.3-.5 45.7-25 49.9-13.9 2.4-32.2 1.9-50.4 1.9-18.7 0-14.3 35.1-12.3 48.9 1.2 8.5 1.7 7.5 10.3 7.3 41.1-.9 16.5-5.8 57.4-2.3 18.9 1.6 30.7 5 65.4 6.8 2.6.1 6.3-.9 8.9 0 1.5.5 2.3 1.4 2.4 2.3zM339.8 533.9c-.8 2.4 1.2 4.8 3.7 4.5 2.6-.3 5.2 4 7.7 4 6.8 0 52.3-2.2 59-1.1 2.3.4 5.1 1.4 5.7 3.9.4 1.6-2.4 5.4-4.4 6-7.8 2.4-54.6 5.5-62.6 5.6-24.8.5-86.1 0-110.9-.9-2.5-.1-4.9-2.2-7.4-4.3a3.49 3.49 0 01-.1-5.2c2.5-2.3 5-2.4 7.8-2.7 9.6-1.1 55.9-.4 65.6-.4 7.1 0 10.5-5.2 12.5-12.6 4.6-16.6 2.6-32.8-1.2-48.9-.7-2.9-5.1-16.1-7.8-16.1-12.2 0-49.4.7-61.6 2.1-11 1.3-19.2 9.4-17.6 20.8 1.4 9.9-2.2 28.7-2.3 38.7 0 3.7-4.9 7.5-7.9 8.2-3.1.7-9.7-12-10.8-15.1-6.7-18.8-4.5-37.6 5.1-58.2.7-1.5 1.9-3.5 3.2-3.7 24.4-5.2 73.9-1.3 98.5-6 4.4-.8 9.5.1 13.9 1.4 8.3 2.4 18.1 8.2 18.8 17 1.1 14.2-1.8 28.5-2.2 42.8 0 6.6-2.5 13.1-4.7 20.2zM369.3 402.9c.2 1.4-.8 2.8-2.3 3.3-9.5 3-20 7.3-36.9 8.3-26.6 1.7-197.7 2.3-224.3.9-7.9-.4-16.1-8.6-22.7-14-5.5-4.4-4-8.9 4.6-9.2 5.1-.2 10.3-.8 15.4.1 44.4 7.4 166.8 5.3 228 8.5 10.8.6 25.3-1.1 34.8-2.1 1.6-.1 3.2 2.9 3.4 4.2zM213.4 228.9c-1.1-5.6-4.9-5.2-14.2-4.3-10.6 1.1-46.4 2.1-73.9.3-5.6-.4-44.4-3.7-58.5-4.5-19.2-1.2-34.6-3.8-44-5.2-8-1.5-16.1-1-19.6 1-3.3 2 13.5 17.8 25.4 19.7 0 0 40.6 4.3 51.5 5.2 16.7 1.5 47.7 2.9 54.7 2.5 36.2-2.1 44.4-2.3 70.9-8.2.1.1 8.5-2.3 7.7-6.5zM147.4 111c15.5-1-3.4-13.2-.2-17.8 3.6-5.2 16.8-8 20.9-14.9-6.4-.8-22.7-5.2-28.8-5.1-15 .1-32.6 1.5-47.6 1.9-8.9.2-18-1.9-25.7-9.3-3.9-3.1-3.4-6.9 3.1-7.5 21.8.5 57.4 2.5 84.6 3.6 10.8.4 18.6-5.5 29.4-4.6 4 .4 7 3.7 8.6 7 1.2 2.6-1.4 8.9-4.3 11.1-4.9 3.8-20.4 11-26.4 13-15.2 5.1-5.3 2.9.8 17.1 4.7 10.9 2.5 20.1-9.3 23.4-23.5 6.4-23.7 29.9-13.9 38.4 5.6 4.8 8.5 10.7 21.3 8.5 6.7-1.1 12.8-4.3 14.9-19.2 1.5-10.6-4.9-16.1-4.6-19.1.3-2.4 1.2-6.1 2.8-6.7 1.9-.7 5.2-1.2 7.2.1 12.9 8.6 14.5 23.2 7.4 36.4-6.9 12.7-21.9 14.9-23.5 16-11.7 7.5-34.4 6.5-47.1-8.2-25.4-29.6 3.1-62.3 30.4-64.1zM159.5 32.9c-.9 9.2-6.2 12.1-13.4 7.5-11.9-7.6-23.6-15.5-35-23.9-2.7-2-5.5-6.8-4.8-9.4.7-2.6 20-5.1 23.5-5.1 17.2 0 26 14.6 29.2 26.4.4 1.8.4 3.6.5 4.5z"/></svg>