<svg xmlns="http://www.w3.org/2000/svg" viewBox="0 0 1100 290">
  <filter x="-2%" y="-10%" width="150%" height="150%" filterUnits="objectBoundingBox" id="PencilTexture">
    <feGaussianBlur in="SourceGraphic" stdDeviation="50" result="blur" />
    <feTurbulence type="fractalNoise" baseFrequency="1.5" numOctaves="5" result="noise">
    </feTurbulence>
    <feBlend in="noise" in2="blur" mode="normal"/>
    <feDisplacementMap xChannelSelector="R" yChannelSelector="G" scale="80" in="SourceGraphic" result="newSource">
    </feDisplacementMap>
  </filter>
  <path fill="none" stroke="#ff2138" stroke-width="10" stroke-linecap="round" stroke-miterlimit="10" filter="url(#PencilTexture)"
  d="M974 266c131-40 127-194 50-214-86-22-133 56-131 87 4 74 81 46 77-9-3-39-106-69-124 69-10 76 50 56 19-6-39-78-10-148 7-152 34 6-83 219-165 181-61-28 18-172 46-144 7 7-3 29-82 86-47 34-72 94-51 97 27 4 67-171 4-208-68-40-168 167-98 148 20-5 51-31 32-79-42-106-248-63-319 72-10 19-19 53-7 50 28-6 58-161-63-173-70-7-114 53-105 94 10 44 54 50 75 21 15-20 6-56-19-64-58-18-129 65-88 125"/>
</svg>