<svg xmlns="http://www.w3.org/2000/svg" x="0" y="0">
  <path 
    stroke="#000" 
    stroke-width="30" 
    stroke-linecap="round" 
    stroke-miterlimit="10"
    d="M851 260c169-109 70-223-23-189-67 24-93 76-80 105 15 34 85 13 71-37-11-38-118-105-118 59 0 77 21 32 10-6-25-87-2-143 15-147 34 6-76 205-144 175-12-6-71-50 45-143 22-18-69 21-113 128-14 34-21 47-16 44h2c20-4 32-205-26-217-37-8-60 35-68 74-9 45 18 155 48 131 29-24 1-112-25-133C293-9 221 222 242 262c13 25 57-58 18-142C212 15 90 61 74 152c-12 65 51 78 74 31 19-39-74-87-117-44M1091 73c49 2 79 62 66 87-24 48-88 55-97 43-8-11 19-5 86-39 12-6-78-56-81-29-2 18 48 19 68 26 15 5 58 5 78-4 25-12 108-105 58-116-44-10-74 195 15 197 43 1 100-79 107-136 5-38-32-45-39-18-35 140 195 0 113 24-51 14 57-50 77-23 15 18-37 83-19 28 18-58 42-71 42-71 27-20 62 18 24 80-19 32-23 56-79 74-43 14-111 13-91-5 22-18 161-42 174 1 7 23-33 74-55 74-46 1 10-103 118-164 92-52 86-41 101-59 8-10-91 23-96 67-4 48 105 21 100 8-4-10-123 32-91 80 33 51 199 15 164-58-16-33-84 23 0 0 78-21 111-109 65-109-42-1-34 191 64 188"
  />
</svg>